<mxfile host="Electron" modified="2023-04-07T09:47:43.047Z" agent="Mozilla/5.0 (Windows NT 10.0; Win64; x64) AppleWebKit/537.36 (KHTML, like Gecko) draw.io/21.1.2 Chrome/106.0.5249.199 Electron/21.4.3 Safari/537.36" etag="bgpZxgbSlnnUA6YHuaH2" version="21.1.2" type="device">
  <diagram id="C5RBs43oDa-KdzZeNtuy" name="Page-1">
    <mxGraphModel dx="1434" dy="844" grid="1" gridSize="10" guides="1" tooltips="1" connect="1" arrows="1" fold="1" page="1" pageScale="1" pageWidth="827" pageHeight="1169" math="0" shadow="0">
      <root>
        <mxCell id="WIyWlLk6GJQsqaUBKTNV-0" />
        <mxCell id="WIyWlLk6GJQsqaUBKTNV-1" parent="WIyWlLk6GJQsqaUBKTNV-0" />
        <mxCell id="JSA2aJdna-6UhjoOlaB5-0" value="&lt;p style=&quot;margin:0px;margin-top:4px;text-align:center;&quot;&gt;&lt;i&gt;&amp;lt;&amp;lt;Interface&amp;gt;&amp;gt;&lt;/i&gt;&lt;br&gt;&lt;b&gt;Mediator&lt;/b&gt;&lt;/p&gt;&lt;hr size=&quot;1&quot;&gt;&lt;p style=&quot;margin:0px;margin-left:4px;&quot;&gt;&lt;br&gt;&lt;/p&gt;&lt;hr size=&quot;1&quot;&gt;&lt;p style=&quot;margin:0px;margin-left:4px;&quot;&gt;+ notify(Sender)&lt;br&gt;&lt;/p&gt;" style="verticalAlign=top;align=left;overflow=fill;fontSize=12;fontFamily=Helvetica;html=1;whiteSpace=wrap;" vertex="1" parent="WIyWlLk6GJQsqaUBKTNV-1">
          <mxGeometry x="80" y="100" width="190" height="100" as="geometry" />
        </mxCell>
        <mxCell id="JSA2aJdna-6UhjoOlaB5-1" value="&lt;b style=&quot;border-color: var(--border-color);&quot;&gt;ConcreteMediator&lt;/b&gt;" style="swimlane;fontStyle=1;align=center;verticalAlign=top;childLayout=stackLayout;horizontal=1;startSize=26;horizontalStack=0;resizeParent=1;resizeParentMax=0;resizeLast=0;collapsible=1;marginBottom=0;whiteSpace=wrap;html=1;" vertex="1" parent="WIyWlLk6GJQsqaUBKTNV-1">
          <mxGeometry x="80" y="270" width="190" height="180" as="geometry" />
        </mxCell>
        <mxCell id="JSA2aJdna-6UhjoOlaB5-2" value="- componentA&lt;br&gt;- componentB&lt;br&gt;- componentC&lt;br&gt;- componentD" style="text;strokeColor=none;fillColor=none;align=left;verticalAlign=top;spacingLeft=4;spacingRight=4;overflow=hidden;rotatable=0;points=[[0,0.5],[1,0.5]];portConstraint=eastwest;whiteSpace=wrap;html=1;" vertex="1" parent="JSA2aJdna-6UhjoOlaB5-1">
          <mxGeometry y="26" width="190" height="64" as="geometry" />
        </mxCell>
        <mxCell id="JSA2aJdna-6UhjoOlaB5-3" value="" style="line;strokeWidth=1;fillColor=none;align=left;verticalAlign=middle;spacingTop=-1;spacingLeft=3;spacingRight=3;rotatable=0;labelPosition=right;points=[];portConstraint=eastwest;strokeColor=inherit;" vertex="1" parent="JSA2aJdna-6UhjoOlaB5-1">
          <mxGeometry y="90" width="190" height="8" as="geometry" />
        </mxCell>
        <mxCell id="JSA2aJdna-6UhjoOlaB5-4" value="+ notify(Sender)&lt;br&gt;+ onOperationA()&lt;br&gt;+ onOperationB()&lt;br&gt;+ onOperationC()&lt;br&gt;+ onOperationD()" style="text;strokeColor=none;fillColor=none;align=left;verticalAlign=top;spacingLeft=4;spacingRight=4;overflow=hidden;rotatable=0;points=[[0,0.5],[1,0.5]];portConstraint=eastwest;whiteSpace=wrap;html=1;" vertex="1" parent="JSA2aJdna-6UhjoOlaB5-1">
          <mxGeometry y="98" width="190" height="82" as="geometry" />
        </mxCell>
        <mxCell id="JSA2aJdna-6UhjoOlaB5-5" value="" style="endArrow=block;endSize=16;endFill=0;html=1;rounded=0;exitX=0.5;exitY=0;exitDx=0;exitDy=0;entryX=0.5;entryY=1;entryDx=0;entryDy=0;" edge="1" parent="WIyWlLk6GJQsqaUBKTNV-1" source="JSA2aJdna-6UhjoOlaB5-1" target="JSA2aJdna-6UhjoOlaB5-0">
          <mxGeometry width="160" relative="1" as="geometry">
            <mxPoint x="330" y="330" as="sourcePoint" />
            <mxPoint x="490" y="330" as="targetPoint" />
          </mxGeometry>
        </mxCell>
        <mxCell id="JSA2aJdna-6UhjoOlaB5-6" value="ComponentA" style="swimlane;fontStyle=1;align=center;verticalAlign=top;childLayout=stackLayout;horizontal=1;startSize=26;horizontalStack=0;resizeParent=1;resizeParentMax=0;resizeLast=0;collapsible=1;marginBottom=0;whiteSpace=wrap;html=1;" vertex="1" parent="WIyWlLk6GJQsqaUBKTNV-1">
          <mxGeometry x="450" y="60" width="160" height="83" as="geometry" />
        </mxCell>
        <mxCell id="JSA2aJdna-6UhjoOlaB5-7" value="- mediator: Mediator" style="text;strokeColor=none;fillColor=none;align=left;verticalAlign=top;spacingLeft=4;spacingRight=4;overflow=hidden;rotatable=0;points=[[0,0.5],[1,0.5]];portConstraint=eastwest;whiteSpace=wrap;html=1;" vertex="1" parent="JSA2aJdna-6UhjoOlaB5-6">
          <mxGeometry y="26" width="160" height="25" as="geometry" />
        </mxCell>
        <mxCell id="JSA2aJdna-6UhjoOlaB5-8" value="" style="line;strokeWidth=1;fillColor=none;align=left;verticalAlign=middle;spacingTop=-1;spacingLeft=3;spacingRight=3;rotatable=0;labelPosition=right;points=[];portConstraint=eastwest;strokeColor=inherit;" vertex="1" parent="JSA2aJdna-6UhjoOlaB5-6">
          <mxGeometry y="51" width="160" height="7" as="geometry" />
        </mxCell>
        <mxCell id="JSA2aJdna-6UhjoOlaB5-9" value="+ operationA()" style="text;strokeColor=none;fillColor=none;align=left;verticalAlign=top;spacingLeft=4;spacingRight=4;overflow=hidden;rotatable=0;points=[[0,0.5],[1,0.5]];portConstraint=eastwest;whiteSpace=wrap;html=1;" vertex="1" parent="JSA2aJdna-6UhjoOlaB5-6">
          <mxGeometry y="58" width="160" height="25" as="geometry" />
        </mxCell>
        <mxCell id="JSA2aJdna-6UhjoOlaB5-10" value="ComponentB" style="swimlane;fontStyle=1;align=center;verticalAlign=top;childLayout=stackLayout;horizontal=1;startSize=26;horizontalStack=0;resizeParent=1;resizeParentMax=0;resizeLast=0;collapsible=1;marginBottom=0;whiteSpace=wrap;html=1;" vertex="1" parent="WIyWlLk6GJQsqaUBKTNV-1">
          <mxGeometry x="450" y="160" width="160" height="83" as="geometry" />
        </mxCell>
        <mxCell id="JSA2aJdna-6UhjoOlaB5-11" value="- mediator: Mediator" style="text;strokeColor=none;fillColor=none;align=left;verticalAlign=top;spacingLeft=4;spacingRight=4;overflow=hidden;rotatable=0;points=[[0,0.5],[1,0.5]];portConstraint=eastwest;whiteSpace=wrap;html=1;" vertex="1" parent="JSA2aJdna-6UhjoOlaB5-10">
          <mxGeometry y="26" width="160" height="25" as="geometry" />
        </mxCell>
        <mxCell id="JSA2aJdna-6UhjoOlaB5-12" value="" style="line;strokeWidth=1;fillColor=none;align=left;verticalAlign=middle;spacingTop=-1;spacingLeft=3;spacingRight=3;rotatable=0;labelPosition=right;points=[];portConstraint=eastwest;strokeColor=inherit;" vertex="1" parent="JSA2aJdna-6UhjoOlaB5-10">
          <mxGeometry y="51" width="160" height="7" as="geometry" />
        </mxCell>
        <mxCell id="JSA2aJdna-6UhjoOlaB5-13" value="+ operationB()" style="text;strokeColor=none;fillColor=none;align=left;verticalAlign=top;spacingLeft=4;spacingRight=4;overflow=hidden;rotatable=0;points=[[0,0.5],[1,0.5]];portConstraint=eastwest;whiteSpace=wrap;html=1;" vertex="1" parent="JSA2aJdna-6UhjoOlaB5-10">
          <mxGeometry y="58" width="160" height="25" as="geometry" />
        </mxCell>
        <mxCell id="JSA2aJdna-6UhjoOlaB5-14" value="ComponentC" style="swimlane;fontStyle=1;align=center;verticalAlign=top;childLayout=stackLayout;horizontal=1;startSize=26;horizontalStack=0;resizeParent=1;resizeParentMax=0;resizeLast=0;collapsible=1;marginBottom=0;whiteSpace=wrap;html=1;" vertex="1" parent="WIyWlLk6GJQsqaUBKTNV-1">
          <mxGeometry x="450" y="260" width="160" height="83" as="geometry" />
        </mxCell>
        <mxCell id="JSA2aJdna-6UhjoOlaB5-15" value="- mediator: Mediator" style="text;strokeColor=none;fillColor=none;align=left;verticalAlign=top;spacingLeft=4;spacingRight=4;overflow=hidden;rotatable=0;points=[[0,0.5],[1,0.5]];portConstraint=eastwest;whiteSpace=wrap;html=1;" vertex="1" parent="JSA2aJdna-6UhjoOlaB5-14">
          <mxGeometry y="26" width="160" height="25" as="geometry" />
        </mxCell>
        <mxCell id="JSA2aJdna-6UhjoOlaB5-16" value="" style="line;strokeWidth=1;fillColor=none;align=left;verticalAlign=middle;spacingTop=-1;spacingLeft=3;spacingRight=3;rotatable=0;labelPosition=right;points=[];portConstraint=eastwest;strokeColor=inherit;" vertex="1" parent="JSA2aJdna-6UhjoOlaB5-14">
          <mxGeometry y="51" width="160" height="7" as="geometry" />
        </mxCell>
        <mxCell id="JSA2aJdna-6UhjoOlaB5-17" value="+ operationC()" style="text;strokeColor=none;fillColor=none;align=left;verticalAlign=top;spacingLeft=4;spacingRight=4;overflow=hidden;rotatable=0;points=[[0,0.5],[1,0.5]];portConstraint=eastwest;whiteSpace=wrap;html=1;" vertex="1" parent="JSA2aJdna-6UhjoOlaB5-14">
          <mxGeometry y="58" width="160" height="25" as="geometry" />
        </mxCell>
        <mxCell id="JSA2aJdna-6UhjoOlaB5-18" value="ComponentD" style="swimlane;fontStyle=1;align=center;verticalAlign=top;childLayout=stackLayout;horizontal=1;startSize=26;horizontalStack=0;resizeParent=1;resizeParentMax=0;resizeLast=0;collapsible=1;marginBottom=0;whiteSpace=wrap;html=1;" vertex="1" parent="WIyWlLk6GJQsqaUBKTNV-1">
          <mxGeometry x="450" y="366" width="160" height="83" as="geometry" />
        </mxCell>
        <mxCell id="JSA2aJdna-6UhjoOlaB5-19" value="- mediator: Mediator" style="text;strokeColor=none;fillColor=none;align=left;verticalAlign=top;spacingLeft=4;spacingRight=4;overflow=hidden;rotatable=0;points=[[0,0.5],[1,0.5]];portConstraint=eastwest;whiteSpace=wrap;html=1;" vertex="1" parent="JSA2aJdna-6UhjoOlaB5-18">
          <mxGeometry y="26" width="160" height="25" as="geometry" />
        </mxCell>
        <mxCell id="JSA2aJdna-6UhjoOlaB5-20" value="" style="line;strokeWidth=1;fillColor=none;align=left;verticalAlign=middle;spacingTop=-1;spacingLeft=3;spacingRight=3;rotatable=0;labelPosition=right;points=[];portConstraint=eastwest;strokeColor=inherit;" vertex="1" parent="JSA2aJdna-6UhjoOlaB5-18">
          <mxGeometry y="51" width="160" height="7" as="geometry" />
        </mxCell>
        <mxCell id="JSA2aJdna-6UhjoOlaB5-21" value="+ operationD()" style="text;strokeColor=none;fillColor=none;align=left;verticalAlign=top;spacingLeft=4;spacingRight=4;overflow=hidden;rotatable=0;points=[[0,0.5],[1,0.5]];portConstraint=eastwest;whiteSpace=wrap;html=1;" vertex="1" parent="JSA2aJdna-6UhjoOlaB5-18">
          <mxGeometry y="58" width="160" height="25" as="geometry" />
        </mxCell>
        <mxCell id="JSA2aJdna-6UhjoOlaB5-22" value="" style="endArrow=open;endFill=1;endSize=12;html=1;rounded=0;exitX=0;exitY=0.5;exitDx=0;exitDy=0;entryX=1;entryY=0.5;entryDx=0;entryDy=0;edgeStyle=orthogonalEdgeStyle;" edge="1" parent="WIyWlLk6GJQsqaUBKTNV-1" source="JSA2aJdna-6UhjoOlaB5-7" target="JSA2aJdna-6UhjoOlaB5-0">
          <mxGeometry width="160" relative="1" as="geometry">
            <mxPoint x="440" y="160" as="sourcePoint" />
            <mxPoint x="414" y="242.5" as="targetPoint" />
          </mxGeometry>
        </mxCell>
        <mxCell id="JSA2aJdna-6UhjoOlaB5-23" value="" style="endArrow=open;endFill=1;endSize=12;html=1;rounded=0;exitX=0;exitY=0.5;exitDx=0;exitDy=0;entryX=1;entryY=0.5;entryDx=0;entryDy=0;edgeStyle=orthogonalEdgeStyle;" edge="1" parent="WIyWlLk6GJQsqaUBKTNV-1" source="JSA2aJdna-6UhjoOlaB5-11" target="JSA2aJdna-6UhjoOlaB5-0">
          <mxGeometry width="160" relative="1" as="geometry">
            <mxPoint x="400" y="270" as="sourcePoint" />
            <mxPoint x="220" y="281" as="targetPoint" />
          </mxGeometry>
        </mxCell>
        <mxCell id="JSA2aJdna-6UhjoOlaB5-24" value="" style="endArrow=open;endFill=1;endSize=12;html=1;rounded=0;exitX=0;exitY=0.5;exitDx=0;exitDy=0;entryX=1;entryY=0.5;entryDx=0;entryDy=0;edgeStyle=orthogonalEdgeStyle;" edge="1" parent="WIyWlLk6GJQsqaUBKTNV-1" source="JSA2aJdna-6UhjoOlaB5-15" target="JSA2aJdna-6UhjoOlaB5-0">
          <mxGeometry width="160" relative="1" as="geometry">
            <mxPoint x="460" y="249" as="sourcePoint" />
            <mxPoint x="280" y="160" as="targetPoint" />
          </mxGeometry>
        </mxCell>
        <mxCell id="JSA2aJdna-6UhjoOlaB5-25" value="" style="endArrow=open;endFill=1;endSize=12;html=1;rounded=0;exitX=0;exitY=0.5;exitDx=0;exitDy=0;entryX=1;entryY=0.5;entryDx=0;entryDy=0;edgeStyle=orthogonalEdgeStyle;" edge="1" parent="WIyWlLk6GJQsqaUBKTNV-1" source="JSA2aJdna-6UhjoOlaB5-19" target="JSA2aJdna-6UhjoOlaB5-0">
          <mxGeometry width="160" relative="1" as="geometry">
            <mxPoint x="460" y="349" as="sourcePoint" />
            <mxPoint x="280" y="160" as="targetPoint" />
          </mxGeometry>
        </mxCell>
        <mxCell id="JSA2aJdna-6UhjoOlaB5-26" value="" style="endArrow=open;html=1;endSize=12;startArrow=diamondThin;startSize=14;startFill=1;edgeStyle=orthogonalEdgeStyle;align=left;verticalAlign=bottom;rounded=0;exitX=0.484;exitY=1.006;exitDx=0;exitDy=0;exitPerimeter=0;entryX=1;entryY=0.5;entryDx=0;entryDy=0;" edge="1" parent="WIyWlLk6GJQsqaUBKTNV-1" source="JSA2aJdna-6UhjoOlaB5-4" target="JSA2aJdna-6UhjoOlaB5-19">
          <mxGeometry x="-1" y="3" relative="1" as="geometry">
            <mxPoint x="220" y="570" as="sourcePoint" />
            <mxPoint x="380" y="570" as="targetPoint" />
            <Array as="points">
              <mxPoint x="172" y="510" />
              <mxPoint x="660" y="510" />
              <mxPoint x="660" y="405" />
            </Array>
          </mxGeometry>
        </mxCell>
        <mxCell id="JSA2aJdna-6UhjoOlaB5-27" value="" style="endArrow=open;html=1;endSize=12;startArrow=diamondThin;startSize=14;startFill=1;edgeStyle=orthogonalEdgeStyle;align=left;verticalAlign=bottom;rounded=0;exitX=0.487;exitY=1.006;exitDx=0;exitDy=0;exitPerimeter=0;entryX=1;entryY=0.5;entryDx=0;entryDy=0;" edge="1" parent="WIyWlLk6GJQsqaUBKTNV-1" source="JSA2aJdna-6UhjoOlaB5-4" target="JSA2aJdna-6UhjoOlaB5-15">
          <mxGeometry x="-1" y="3" relative="1" as="geometry">
            <mxPoint x="182" y="417" as="sourcePoint" />
            <mxPoint x="620" y="415" as="targetPoint" />
            <Array as="points">
              <mxPoint x="173" y="510" />
              <mxPoint x="660" y="510" />
              <mxPoint x="660" y="299" />
            </Array>
          </mxGeometry>
        </mxCell>
        <mxCell id="JSA2aJdna-6UhjoOlaB5-28" value="" style="endArrow=open;html=1;endSize=12;startArrow=diamondThin;startSize=14;startFill=1;edgeStyle=orthogonalEdgeStyle;align=left;verticalAlign=bottom;rounded=0;exitX=0.485;exitY=1.004;exitDx=0;exitDy=0;exitPerimeter=0;entryX=1;entryY=0.5;entryDx=0;entryDy=0;" edge="1" parent="WIyWlLk6GJQsqaUBKTNV-1" source="JSA2aJdna-6UhjoOlaB5-4" target="JSA2aJdna-6UhjoOlaB5-11">
          <mxGeometry x="-1" y="3" relative="1" as="geometry">
            <mxPoint x="183" y="416" as="sourcePoint" />
            <mxPoint x="620" y="309" as="targetPoint" />
            <Array as="points">
              <mxPoint x="172" y="510" />
              <mxPoint x="660" y="510" />
              <mxPoint x="660" y="199" />
            </Array>
          </mxGeometry>
        </mxCell>
        <mxCell id="JSA2aJdna-6UhjoOlaB5-29" value="" style="endArrow=open;html=1;endSize=12;startArrow=diamondThin;startSize=14;startFill=1;edgeStyle=orthogonalEdgeStyle;align=left;verticalAlign=bottom;rounded=0;exitX=0.486;exitY=0.999;exitDx=0;exitDy=0;exitPerimeter=0;entryX=1;entryY=0.5;entryDx=0;entryDy=0;" edge="1" parent="WIyWlLk6GJQsqaUBKTNV-1" source="JSA2aJdna-6UhjoOlaB5-4" target="JSA2aJdna-6UhjoOlaB5-7">
          <mxGeometry x="-1" y="3" relative="1" as="geometry">
            <mxPoint x="183" y="417" as="sourcePoint" />
            <mxPoint x="620" y="209" as="targetPoint" />
            <Array as="points">
              <mxPoint x="172" y="510" />
              <mxPoint x="660" y="510" />
              <mxPoint x="660" y="99" />
            </Array>
          </mxGeometry>
        </mxCell>
      </root>
    </mxGraphModel>
  </diagram>
</mxfile>
